<?xml version="1.0" encoding="UTF-8"?><svg id="Calque_2" xmlns="http://www.w3.org/2000/svg" viewBox="0 0 54.01 54.03"><defs><style>.cls-1{fill:#fc4e26;}</style></defs><g id="Calque_1-2"><path d="m21.03,54.03H0V.02h20.02C29.74.02,36.36,5.78,36.36,14.35c0,4.82-2.52,9.72-7.92,11.81,6.34,2.23,9.14,7.78,9.14,13.32,0,8.06-6.7,14.55-16.56,14.55Zm-10.8-31.39h8.78c4.32,0,7.06-3.1,7.06-6.91s-2.66-6.91-7.2-6.91h-8.64v13.83Zm16.99,15.41c0-3.82-2.81-7.06-7.2-7.06h-9.79v14.11h9.65c4.61,0,7.34-3.1,7.34-7.06Z"/><rect class="cls-1" x="0" width="54.01" height="8.75"/></g></svg>