<?xml version="1.0" encoding="UTF-8"?><svg id="Calque_2" xmlns="http://www.w3.org/2000/svg" viewBox="0 0 333.63 340.66"><defs><style>.cls-1{fill:#ededed;}</style></defs><g id="Calque_1-2"><g id="zkhL72.tif"><path class="cls-1" d="m181.29,0c-.45.07-.89.2-1.34.21-5.84.03-11.68.05-17.52.04-.53,0-1.05-.16-1.58-.25,6.81,0,13.63,0,20.44,0Z"/><path class="cls-1" d="m284.51,44.51c-16.01,16.02-31.86,31.89-47.78,47.82-1.17-.93-2.39-1.92-3.63-2.88-13.21-10.28-28.03-17.03-44.5-20-7.45-1.34-14.99-1.7-22.57-1.48-11.63.32-22.81,2.65-33.58,6.95-23.74,9.48-41.62,25.58-53.5,48.19-5.08,9.67-8.71,19.91-10.26,30.78-1.1,7.74-1.58,15.51-1.09,23.35,1.18,18.72,7.1,35.81,17.66,51.24,10.92,15.97,25.27,27.9,42.95,35.85,9.24,4.15,18.91,6.72,28.89,8.04,8.01,1.06,16.08,1.05,24.12.21,6.98-.73,13.9-1.83,20.6-4.04,10.61-3.49,20.46-8.43,29.24-15.41,12.55-9.99,21.8-22.46,27.98-37.22,1.31-3.13,2.35-6.37,3.5-9.57.08-.22.07-.47.11-.82h-92.49v-64.92h1.24c34.77,0,69.55,0,104.32,0,15.12,0,30.24.03,45.36.07,2.82,0,5.65.14,8.47.17.64,0,.93.15,1.07.86,1.9,10.06,3.16,20.17,2.96,30.43-.12,6.43,0,12.89-.51,19.29-1.45,18.52-5.65,36.44-12.26,53.79-4.36,11.45-9.92,22.26-17.02,32.26-5.3,7.46-10.92,14.65-17.45,21.09-7.43,7.32-15.76,13.49-24.61,18.98-7.25,4.49-14.82,8.35-22.82,11.31-10.91,4.04-22.1,7.05-33.59,8.97-14.89,2.49-29.87,3.28-44.93,2.61-10.1-.45-20.03-2.12-29.86-4.51-29.31-7.12-54.94-21.06-77-41.58-12.47-11.6-22.64-25.01-31.29-39.65-8.72-14.76-14.38-30.66-18.2-47.28-3.62-15.77-4.7-31.75-3.73-47.88.69-11.47,2.62-22.71,5.6-33.82,2.96-11.02,6.99-21.61,12.14-31.77,7.54-14.88,17.13-28.34,28.61-40.42,17.41-18.33,37.91-32.12,61.47-41.38,11.63-4.57,23.63-7.76,35.93-9.79,6.47-1.07,13.01-1.61,19.6-1.5,6.73.11,13.47-.15,20.18.22,5.45.31,10.89,1.15,16.29,2.05,19.56,3.26,37.73,10.38,55,20.02,10.4,5.8,19.67,13.11,28.64,20.86.25.22.55.38.72.5Z"/></g></g></svg>