<?xml version="1.0" encoding="UTF-8"?><svg id="Calque_2" xmlns="http://www.w3.org/2000/svg" viewBox="0 0 400.61 490.11"><defs><style>.cls-1{stroke:#1d1d1b;stroke-miterlimit:10;stroke-width:9px;}</style></defs><g id="Calque_1-2"><path class="cls-1" d="m4.5,244.79c0-69.72,0-139.44,0-209.17,0-19.67,11.33-31.1,30.84-31.11,57.39,0,114.79,0,172.18,0,1.16,0,2.33-.05,3.49.02,3.45.21,5.87,1.97,5.93,5.47.06,3.79-2.41,5.62-6.15,5.67-1.66.02-3.33.02-4.99.02-56.56,0-113.13,0-169.69,0-14.48,0-20.51,6.09-20.51,20.7,0,139.11,0,278.22,0,417.34,0,14.57,6.06,20.68,20.54,20.68,57.06,0,114.12,0,171.19,0,6.98,0,9.86,1.71,9.71,5.71-.15,3.85-2.96,5.47-9.54,5.47-57.39,0-114.79,0-172.18,0-19.25,0-30.81-11.51-30.81-30.65,0-70.06,0-140.11,0-210.17Z"/><path class="cls-1" d="m376.3,250.72h-6.87c-84.52,0-169.04,0-253.57,0-1.5,0-3,.04-4.49-.02-3.59-.15-6.26-1.58-6.31-5.55-.06-3.94,2.49-5.54,6.13-5.71,1.49-.07,2.99-.03,4.49-.03,84.52,0,169.04,0,253.57,0h7.03c-1.94-2.1-3.06-3.41-4.27-4.63-35.29-35.31-70.58-70.61-105.88-105.92-1.06-1.06-2.2-2.05-3.14-3.21-2.08-2.57-2.11-5.3.23-7.62,2.3-2.28,5.02-2.43,7.65-.38.91.71,1.68,1.61,2.5,2.43,39.53,39.54,79.06,79.08,118.59,118.62,5.53,5.53,5.53,7.2.04,12.69-39.41,39.43-78.82,78.85-118.24,118.27-.94.94-1.82,1.98-2.88,2.76-2.64,1.95-5.86,2.17-7.45-.59-1.11-1.94-.57-5.09-.11-7.57.23-1.22,1.96-2.16,3.01-3.22,35.18-35.19,70.36-70.37,105.53-105.56,1.24-1.24,2.39-2.56,4.44-4.76Z"/></g></svg>