<?xml version="1.0" encoding="UTF-8"?><svg id="Calque_2" xmlns="http://www.w3.org/2000/svg" viewBox="0 0 270.36 55.16"><defs><style>.cls-1{fill:#fc4e26;}.cls-2{fill:#1d1d1b;}</style></defs><g id="Calque_1-2"><path class="cls-2" d="m21.03,54H0V0h20.02c9.72,0,16.35,5.76,16.35,14.33,0,4.82-2.52,9.72-7.92,11.81,6.34,2.23,9.14,7.78,9.14,13.32,0,8.06-6.7,14.54-16.56,14.54Zm-10.8-31.39h8.78c4.32,0,7.06-3.1,7.06-6.91s-2.66-6.91-7.2-6.91h-8.64v13.83Zm16.99,15.41c0-3.82-2.81-7.06-7.2-7.06h-9.79v14.11h9.65c4.61,0,7.34-3.1,7.34-7.06Z"/><path class="cls-2" d="m63,16.71v8.86h-7.92v28.44h-10.08V16.71h18Z"/><path class="cls-2" d="m85.1,15.55c5.69,0,10.08,2.45,12.03,5.9h.29c-.07-.58-.14-1.3-.14-3.31v-1.44h9.22v37.3h-9.22v-1.73c0-1.66.07-2.66.14-3.46h-.29c-2.16,3.89-6.77,6.34-12.46,6.34-10.66,0-18.15-8.14-18.15-19.8s7.92-19.8,18.58-19.8Zm11.81,19.66c0-6.41-4.25-10.87-10.15-10.87s-10.08,4.46-10.08,10.87,4.25,11.02,10.08,11.02,10.15-4.54,10.15-11.02Z"/><path class="cls-2" d="m147.96,16.71v37.3h-10.08v-28.66h-11.52v28.66h-10.08V16.71h31.68Z"/><path class="cls-2" d="m173.88,15.55c4.97,0,9.5,1.94,11.38,5.11h.29c-.07-.5-.14-1.22-.14-3.24V0h9.94v54h-9.22v-1.66c0-1.58.07-2.66.14-3.38h-.29c-2.38,3.96-7.06,6.19-12.53,6.19-10.58,0-18.07-8.14-18.07-19.8s7.78-19.8,18.5-19.8Zm11.88,19.66c0-6.41-4.25-10.87-10.15-10.87s-10.08,4.46-10.08,10.87,4.25,10.95,10.08,10.95,10.15-4.46,10.15-10.95Z"/><path class="cls-2" d="m221.33,15.55c5.69,0,10.08,2.45,12.03,5.9h.29c-.07-.58-.14-1.3-.14-3.31v-1.44h9.22v37.3h-9.22v-1.73c0-1.66.07-2.66.14-3.46h-.29c-2.16,3.89-6.77,6.34-12.46,6.34-10.66,0-18.15-8.14-18.15-19.8s7.92-19.8,18.58-19.8Zm11.81,19.66c0-6.41-4.25-10.87-10.15-10.87s-10.08,4.46-10.08,10.87,4.25,11.02,10.08,11.02,10.15-4.54,10.15-11.02Z"/><path class="cls-2" d="m252.5,0h10.08v45.22h7.78v8.79h-17.86V0Z"/><rect class="cls-1" x="45.07" y="1.2" width="103" height="9.04"/><rect class="cls-1" x="203.23" y="1.3" width="39.96" height="9.04"/></g></svg>